HIERARCHY
ROOT Hips
{
	OFFSET 0.0000 0.0000 0.0000
	CHANNELS 6 Xposition Yposition Zposition Zrotation Xrotation Yrotation
	JOINT Ab
	{
		OFFSET -0.0000 8.0846 -0.0000
		CHANNELS 3 Zrotation Xrotation Yrotation
		JOINT Chest
		{
			OFFSET -0.0000 25.0068 -0.0000
			CHANNELS 3 Zrotation Xrotation Yrotation
			JOINT Neck
			{
				OFFSET -0.0000 25.0068 0.0000
				CHANNELS 3 Zrotation Xrotation Yrotation
				JOINT Head
				{
					OFFSET -0.0000 10.7556 0.0000
					CHANNELS 3 Zrotation Xrotation Yrotation
					End Site
					{
						OFFSET -0.0000 16.6222 0.0000
					}
				}
			}
			JOINT LeftCollar
			{
				OFFSET -0.0000 25.0068 0.0000
				CHANNELS 3 Zrotation Xrotation Yrotation
				JOINT LeftShoulder
				{
					OFFSET 19.5556 -0.0000 0.0000
					CHANNELS 3 Zrotation Xrotation Yrotation
					JOINT LeftElbow
					{
						OFFSET 27.1828 0.0000 0.0000
						CHANNELS 3 Zrotation Xrotation Yrotation
						JOINT LeftWrist
						{
							OFFSET 23.3157 0.0000 0.0000
							CHANNELS 3 Zrotation Xrotation Yrotation
							End Site
							{
								OFFSET 0.0000 -14.6667 0.0000
							}
						}
					}
				}
			}
			JOINT RightCollar
			{
				OFFSET -0.0000 25.0068 0.0000
				CHANNELS 3 Zrotation Xrotation Yrotation
				JOINT RightShoulder
				{
					OFFSET -19.5556 0.0000 0.0000
					CHANNELS 3 Zrotation Xrotation Yrotation
					JOINT RightElbow
					{
						OFFSET -27.1828 0.0000 0.0000
						CHANNELS 3 Zrotation Xrotation Yrotation
						JOINT RightWrist
						{
							OFFSET -23.3157 0.0000 0.0000
							CHANNELS 3 Zrotation Xrotation Yrotation
							End Site
							{
								OFFSET -0.0000 -14.6667 0.0000
							}
						}
					}
				}
			}
		}
	}
	JOINT LeftHip
	{
		OFFSET 11.7333 0.0000 0.0000
		CHANNELS 3 Zrotation Xrotation Yrotation
		JOINT LeftKnee
		{
			OFFSET -0.0000 -40.8688 0.0000
			CHANNELS 3 Zrotation Xrotation Yrotation
			JOINT LeftAnkle
			{
				OFFSET -0.0000 -44.4337 0.0000
				CHANNELS 3 Zrotation Xrotation Yrotation
				End Site
				{
					OFFSET -0.0000 -4.8889 16.6222
				}
			}
		}
	}
	JOINT RightHip
	{
		OFFSET -11.7333 0.0000 0.0000
		CHANNELS 3 Zrotation Xrotation Yrotation
		JOINT RightKnee
		{
			OFFSET -0.0000 -40.8688 0.0000
			CHANNELS 3 Zrotation Xrotation Yrotation
			JOINT RightAnkle
			{
				OFFSET -0.0000 -44.4337 0.0000
				CHANNELS 3 Zrotation Xrotation Yrotation
				End Site
				{
					OFFSET -0.0000 -4.8889 16.6222
				}
			}
		}
	}
}
MOTION
Frames: 7
Frame Time: 0.010000
-1.5821 88.6481 188.1462 2.3293 0.0934 176.2351 1.9375 359.5994 358.3990 359.0824 10.0155 358.4725 0.3632 342.2209 1.3057 3.5577 6.5937 1.0450 338.5818 358.4535 8.1641 299.5339 28.6897 357.4620 16.0173 354.4655 322.0746 82.2436 0.5750 340.1192 22.6051 359.0749 355.2894 58.0387 44.8732 8.0947 338.7080 354.1874 30.2919 276.0805 353.0178 20.7308 2.1829 358.8931 357.2032 359.2061 10.5887 357.5835 357.6815 351.3764 22.0378 0.9948 352.1425 359.7293 358.3745 20.2298 10.2188 355.7954 344.5651 336.8570 
-1.5864 88.6494 188.1328 2.3228 0.0861 176.2347 1.9211 359.6175 358.4040 359.0922 10.0235 358.4770 0.3116 342.1817 1.2816 3.6083 6.6264 1.0238 338.5766 358.4458 8.2098 299.5527 28.7134 357.4445 16.0366 354.4624 322.0805 82.2101 0.5830 340.1546 22.6046 359.0783 355.3166 57.9481 44.9241 8.1800 338.6880 354.1392 30.3716 276.1111 353.0173 20.7729 2.1767 358.8925 357.2265 359.1991 10.5932 357.5579 356.1989 351.0911 21.7696 0.9838 352.1505 359.7392 358.3758 20.2196 10.2332 355.8132 344.5552 336.8519 
-1.5882 88.6517 188.1191 2.3199 0.0848 176.2291 1.9136 359.6391 358.3997 359.0933 10.0364 358.4736 0.2683 342.1546 1.2571 3.6359 6.6448 1.0048 338.5769 358.4547 8.2247 299.5640 28.7064 357.4487 15.9604 354.5050 322.1272 82.5704 0.4437 340.2959 22.6078 359.0649 355.3335 57.8479 45.0163 8.2768 338.6510 354.1168 30.4536 276.1373 353.0739 20.7842 2.1715 358.9048 357.2409 359.2020 10.5875 357.5552 357.5895 351.3461 22.0189 0.9752 352.1673 359.7646 358.3861 20.2031 10.2374 355.8169 344.5439 336.8470 
-1.5898 88.6542 188.1070 2.3221 0.0815 176.2283 1.8870 359.6545 358.4099 359.1305 10.0758 358.4806 0.1962 342.0867 1.2229 3.6879 6.6845 0.9743 338.5758 358.4484 8.2259 299.5630 28.6201 357.4473 15.9804 354.4759 322.0420 82.2289 0.5900 340.0853 22.5778 359.0552 355.3339 57.7529 45.0983 8.4040 338.6292 354.1080 30.5280 276.0915 353.0843 20.8171 2.1774 358.9049 357.2401 359.1924 10.5973 357.5298 356.6022 351.1447 21.8539 0.9747 352.1874 359.7912 358.4006 20.1737 10.1792 355.8338 344.5403 336.8769 
-1.5924 88.6563 188.0906 2.3220 0.0883 176.2314 1.8190 359.6476 358.4344 359.2598 10.2118 358.4951 0.0209 341.8828 1.1559 3.7796 6.8085 0.9283 338.5856 358.4339 8.2360 299.5302 28.6335 357.3798 15.9852 354.4773 322.0435 82.1810 0.5584 340.0406 22.4672 359.0552 355.2703 57.5732 45.1939 8.6845 338.6287 354.0873 30.5933 276.0412 353.0364 20.8370 2.1780 358.9257 357.2095 359.1802 10.5894 357.5511 357.4747 351.2850 22.0134 0.9693 352.2224 359.8103 358.4138 20.1429 10.1292 355.8359 344.5241 336.8981 
-1.5975 88.6584 188.0793 2.3156 0.0720 176.2428 1.7901 359.6592 358.4417 359.2764 10.2212 358.5020 0.0080 341.8845 1.1236 3.7892 6.7695 0.8977 338.5887 358.4524 8.1889 299.5348 28.4968 357.4094 15.8847 354.5450 322.0497 82.2101 0.5127 339.9364 22.4615 359.0761 355.2535 57.4622 45.2436 8.8191 338.6404 354.0738 30.6929 276.0110 353.0806 20.8388 2.1723 358.9108 357.2095 359.1728 10.5954 357.5413 356.7560 351.1541 21.8865 0.9503 352.2298 359.8417 358.4346 20.1181 10.1385 355.8247 344.5294 336.8667 
-1.6033 88.6609 188.0678 2.3128 0.0588 176.2469 1.7795 359.6838 358.4447 359.2704 10.2121 358.5059 359.9869 341.8986 1.1014 3.8230 6.7346 0.8800 338.6015 358.4396 8.1696 299.5202 28.4483 357.4537 15.9064 354.5072 321.9894 82.0621 0.5966 339.8387 22.4604 359.0622 355.2546 57.3645 45.3461 8.9425 338.5650 354.0415 30.7717 276.0242 353.1022 20.8181 2.1700 358.8992 357.2101 359.1671 10.6079 357.5334 357.3019 351.2465 21.9833 0.9378 352.2369 359.8794 358.4589 20.0992 10.0961 355.8126 344.5163 336.8587 
